<?xml version="1.0" standalone="no"?>
<!DOCTYPE svg PUBLIC "-//W3C//DTD SVG 20010904//EN"
 "http://www.w3.org/TR/2001/REC-SVG-20010904/DTD/svg10.dtd">
<svg version="1.0" xmlns="http://www.w3.org/2000/svg"
 width="253.000000pt" height="253.000000pt" viewBox="0 0 253.000000 253.000000"
 preserveAspectRatio="xMidYMid meet">
<metadata>
Created by potrace 1.11, written by Peter Selinger 2001-2013
</metadata>
<g transform="translate(0.000000,253.000000) scale(0.100000,-0.100000)"
fill="#000000" stroke="none">
<path d="M1109 2455 c-2 -2 -21 -6 -42 -9 -112 -18 -220 -52 -342 -109 -49
-23 -92 -44 -95 -48 -3 -3 -32 -23 -65 -44 -88 -57 -252 -226 -316 -325 -138
-211 -193 -396 -194 -645 0 -146 8 -217 35 -315 62 -219 154 -376 314 -535
177 -176 364 -278 606 -331 92 -20 126 -23 275 -19 181 3 259 17 398 70 288
108 537 339 665 615 79 172 112 332 107 535 -4 155 -6 173 -41 293 -130 449
-494 775 -956 856 -72 12 -339 21 -349 11z"/>
</g>
</svg>
